<svg width="16" height="16" viewBox="0 0 16 16" fill="none" xmlns="http://www.w3.org/2000/svg">
<g clip-path="url(#clip0_19_5)">
<path d="M8.00001 15.6032C12.1991 15.6032 15.6032 12.1991 15.6032 8.00001C15.6032 3.80087 12.1991 0.396805 8.00001 0.396805C3.80087 0.396805 0.396805 3.80087 0.396805 8.00001C0.396805 12.1991 3.80087 15.6032 8.00001 15.6032Z" fill="white" stroke="black" stroke-width="0.0768"/>
<path d="M2.7424 2.50881L3.2384 3.01441M1.4784 10.5792C2.2176 11.3184 3.2 11.2032 4.1216 11.2256M2.4448 4.69761C0.873601 5.82081 0.492801 8.10241 0.550401 8.08961M4.4416 4.86401C4.2784 6.05761 4.7104 7.36961 5.6064 8.76801M5.264 1.44321C5.7664 0.940811 6.7552 0.588811 8.0576 0.390411M6.368 13.5488C6.208 13.9712 6.2496 14.5568 6.3424 15.1808M6.5408 2.75521C7.4432 2.85761 9.0752 2.99201 10.368 3.72481M9.0752 12.1856C10.0672 12.7392 11.152 12.976 12.4672 12.7616M11.3792 6.33601C10.6048 7.40481 9.6704 8.40001 8.5888 9.33121M12.1376 2.55041C11.7824 1.88801 11.1904 1.35041 10.5408 0.841611M14.208 4.94081C14.528 4.95041 14.8384 5.08161 15.136 5.39201M13.7344 6.97601C14.24 7.92641 14.3136 9.27361 14.3872 10.624" stroke="black" stroke-width="0.0768"/>
<path d="M2.8032 2.56C3.5808 2.0704 4.3968 1.5904 5.5424 1.2032C5.9936 1.5776 6.352 2.1856 6.7328 2.7776C5.8112 3.6576 4.9344 4.5184 4.416 5.1968C3.5392 5.1168 3.104 5.1904 2.048 5.0048C2.0576 4.224 2.3168 3.408 2.8032 2.56ZM12.096 2.432C12.9632 3.2256 13.8144 4.0256 14.4128 4.9536C14.2368 5.792 14.0768 6.7232 13.8368 7.2064C13.088 7.0944 12.1216 6.8064 11.2128 6.5664C10.7712 5.424 10.4736 4.5664 10.1248 3.6096C10.7968 3.1104 11.4592 2.6624 12.096 2.432ZM1.6224 12.1376C0.767357 10.814 0.344674 9.25747 0.412797 7.6832L0.601597 7.6608C0.774397 8.7552 0.998397 9.8176 1.5968 10.6304C1.4816 11.2032 1.5904 11.664 1.76 12.096L1.6224 12.1376ZM5.4528 8.5376C6.6208 8.7296 7.7472 8.9216 8.8448 9.1136C9.184 10.1792 9.2288 11.248 9.344 12.3136C8.5024 13.0112 7.344 13.232 6.3232 13.6576C5.1328 12.8896 4.6496 12.032 3.968 11.2C4.3584 10.3008 4.7904 9.4048 5.4528 8.5376ZM15.0944 10.7072C14.5216 12.2134 13.4851 13.4987 12.1344 14.3776L11.7632 14.3616C12.032 13.9552 12.128 13.4112 12.1408 12.8C12.8832 12.4448 13.6256 11.3184 14.368 10.3296C14.6432 10.4256 14.8768 10.56 15.0944 10.7072ZM7.776 15.5936C6.671 15.5601 5.58661 15.286 4.5984 14.7904C5.2352 15.0272 5.7728 15.248 6.3328 15.056C6.5024 15.296 6.896 15.4848 7.776 15.5936Z" fill="black"/>
</g>
<defs>
<clipPath id="clip0_19_5">
<rect width="16" height="16" fill="white"/>
</clipPath>
</defs>
</svg>
